# xmcd
#
# Track frame offsets: 
#        150
#        27442
#        44117
#        59270
#        81176
#        98298
#        113551
#        131488
#        152231
#        166458
#        187507
#        207558
#
# Disc length: 4035 seconds
#
# Revision: 0
# Processed by: cddbd v1.5.2PL0 Copyright (c) Steve Scherf et al.
# Submitted via: ExactAudioCopy v0.95b4
#
DISCID=980fc10c
DTITLE=The Hearers - The Hearers
DYEAR=2001
DGENRE=Rock
TTITLE0=Old Kerns in Riverside
TTITLE1=Singled Out
TTITLE2=Black and Hollow
TTITLE3=Blind Enough to See
TTITLE4=Bob Fox's Wallet
TTITLE5=Kill the Other Guy
TTITLE6=Smallville Flasher
TTITLE7=The Code
TTITLE8=Cloning is a Hick Process
TTITLE9=Train Along Your Backside
TTITLE10=Bound By Bone
TTITLE11=Wither and Die
EXTD=
EXTT0=
EXTT1=
EXTT2=
EXTT3=
EXTT4=
EXTT5=
EXTT6=
EXTT7=
EXTT8=
EXTT9=
EXTT10=
EXTT11=
PLAYORDER=
